
<svg version="1.1" xmlns="http://www.w3.org/2000/svg" xmlns:xlink="http://www.w3.org/1999/xlink" x="0px" y="0px"
	 viewBox="0 0 500 500" xml:space="preserve">
<style type="text/css">
	.st0{display:none;}
	.st1{fill:#E6E6E5;}
	.st2{fill:#AE0A46;}
</style>
<g id="Layer_2">
	<circle class="st1" cx="247.8" cy="240.5" r="160.5"/>
	<g>
		<path class="st2" d="M223,441.9c0.6,0,1.2,0,1.8-0.1c-0.7-0.1-1.5-0.1-2.2-0.1H71.3c-0.6,0-1.3,0-1.9,0.1c0.8,0.1,1.5,0.1,2.3,0.1
			H223z"/>
		<path class="st2" d="M223,433.9c0.6,0,1.3,0,1.9-0.1c-0.8-0.1-1.5-0.1-2.3-0.1H71.3c-0.6,0-1.2,0-1.8,0.1c0.7,0.1,1.5,0.1,2.2,0.1
			H223z"/>
	</g>
	<path class="st2" d="M278,292H265v-21.9c0-2.7-2.2-4.9-4.9-4.9s-4.9,2.2-4.9,4.9V292h-14.9v-21.9c0-2.7-2.2-4.9-4.9-4.9
		c-2.7,0-4.9,2.2-4.9,4.9V292h-13.5v7.1h5.3v32.3c0,4.2,3.4,7.6,7.6,7.6h4.6v10.8c0,4.7,3.8,8.5,8.5,8.5h1.5v55.5
		c0,10.5-8.1,19.2-18.3,20.1c-0.6,0.1-1.3,0.1-1.9,0.1H72.7c-0.8,0-1.5,0-2.2-0.1c-4.6,0.3-8.8,1.7-12.6,3.9
		c-8.3,4.9-13.8,14-13.8,24.2v11.6h8v-11.6c0-10.5,8.1-19.2,18.3-20.1c0.6-0.1,1.3-0.1,1.9-0.1h151.3c0.8,0,1.5,0,2.2,0.1
		c4.6-0.3,8.8-1.7,12.6-3.9c8.3-4.9,13.8-14,13.8-24.2v-55.5h0.8c4.7,0,8.5-3.8,8.5-8.5V339h4.6c4.2,0,7.6-3.4,7.6-7.6v-32.3h4.4
		V292z"/>
	<path class="st2" d="M332,280.2h-16.4c-1.5,0-2.7-1.2-2.7-2.7l0,0c0-1.5,1.2-2.7,2.7-2.7H332c1.5,0,2.7,1.2,2.7,2.7l0,0
		C334.7,279,333.5,280.2,332,280.2z"/>
	<path class="st2" d="M319.8,305.7l-11.7-11.4c-1.1-1-1.1-2.7-0.1-3.8l0,0c1-1.1,2.7-1.1,3.8-0.1l11.7,11.4c1.1,1,1.1,2.7,0.1,3.8
		l0,0C322.6,306.7,320.9,306.7,319.8,305.7z"/>
	<path class="st2" d="M292.5,314.2v-16.4c0-1.5,1.2-2.7,2.7-2.7l0,0c1.5,0,2.7,1.2,2.7,2.7v16.4c0,1.5-1.2,2.7-2.7,2.7l0,0
		C293.7,316.9,292.5,315.7,292.5,314.2z"/>
	<path class="st2" d="M163.4,220.7h16.4c1.5,0,2.7,1.2,2.7,2.7l0,0c0,1.5-1.2,2.7-2.7,2.7h-16.4c-1.5,0-2.7-1.2-2.7-2.7l0,0
		C160.7,221.9,161.9,220.7,163.4,220.7z"/>
	<path class="st2" d="M175.5,195.2l11.7,11.4c1.1,1,1.1,2.7,0.1,3.8v0c-1,1.1-2.7,1.1-3.8,0.1l-11.7-11.4c-1.1-1-1.1-2.7-0.1-3.8
		l0,0C172.8,194.2,174.5,194.2,175.5,195.2z"/>
	<path class="st2" d="M202.9,186.7v16.4c0,1.5-1.2,2.7-2.7,2.7h0c-1.5,0-2.7-1.2-2.7-2.7v-16.4c0-1.5,1.2-2.7,2.7-2.7h0
		C201.7,184.1,202.9,185.3,202.9,186.7z"/>
	<path class="st2" d="M274.2,40h180v-8.7h-180c-16.9,0-30.7,13.8-30.7,30.7v70.3h-0.7c-4.7,0-8.5,3.8-8.5,8.5v10.8h-4.6
		c-4.2,0-7.6,3.4-7.6,7.6v32.3h-4.4v7.1H279v-7.1h-5.3v-32.3c0-4.2-3.4-7.6-7.6-7.6h-4.6v-10.8c0-4.7-3.8-8.5-8.5-8.5h-1V62.1
		C252.2,49.9,262.1,40,274.2,40z"/>
</g>
</svg>
