<svg xmlns="http://www.w3.org/2000/svg" xmlns:xlink="http://www.w3.org/1999/xlink" viewBox="0 0 300 300">
    <defs>
        <path id="i-delivery-truck" d="M266.9,125.1c0,0-21.6-0.1-21.7-0.2c0,0-29.4-38.1-33.8-38.1h-18.7v-13h-14v87.3h-6.5V73.8h-142c-3.7,0-6.7,3-6.7,6.7v103.8  c0,3.7,3,6.7,6.7,6.7h12.5c3,14.3,15.7,25,30.8,25s27.8-10.7,30.8-25h55.3h12.7h20.3l0,0h8.7c3,14.3,15.7,25,30.8,25  c15.2,0,27.8-10.7,30.8-25h10.7c4.2,0,7.6-3.4,7.6-7.6v-6.8v-37.2C281.3,131.5,274.8,125.1,266.9,125.1z"/>
    </defs>
    <g>
        <use xlink:href="#i-delivery-truck"/>
    </g>
</svg>